<svg width="512" height="512" viewBox="0 0 512 512" fill="none" xmlns="http://www.w3.org/2000/svg">
<path d="M0 8C0 3.58172 3.58172 0 8 0H504C508.418 0 512 3.58172 512 8V504C512 508.418 508.418 512 504 512H8C3.58172 512 0 508.418 0 504V8Z" fill="#1B1B1B"/>
<path d="M177.244 290.04V244.46H81.268V290.04H70.776V188.56H81.268V234.14H177.244V188.56H187.908V290.04H177.244ZM197.54 299.672V178.928H167.612V224.68H90.9V178.928H61.144V299.672H90.9V253.92H167.612V299.672H197.54ZM111.884 220.38H163.312V174.628H201.84L218.524 192.344V320.656H181.028L163.312 303.972V274.904H111.884V320.656H74.56L56.844 303.972V174.628H95.2L111.884 192.344V220.38ZM369.438 209.372C364.278 205.473 358.487 202.779 352.066 201.288C345.759 199.797 339.395 199.052 332.974 199.052H314.226C307.575 199.052 301.326 199.797 295.478 201.288C289.745 202.664 284.757 204.957 280.514 208.168C276.271 211.264 272.889 215.392 270.366 220.552C267.958 225.712 266.754 231.961 266.754 239.3C266.754 246.753 267.958 253.06 270.366 258.22C272.774 263.265 276.099 267.393 280.342 270.604C284.699 273.7 289.745 275.993 295.478 277.484C301.211 278.86 307.461 279.548 314.226 279.548H332.974C338.937 279.548 344.613 278.917 350.002 277.656C355.506 276.28 360.437 274.216 364.794 271.464C369.151 268.597 372.878 264.985 375.974 260.628C379.07 256.156 381.306 250.767 382.682 244.46H335.21V234.14H394.722V239.3C394.722 248.817 393.059 256.844 389.734 263.38C386.409 269.801 381.937 275.019 376.318 279.032C370.699 282.931 364.163 285.74 356.71 287.46C349.257 289.18 341.345 290.04 332.974 290.04H314.226C305.855 290.04 298.115 289.123 291.006 287.288C283.897 285.453 277.705 282.529 272.43 278.516C267.27 274.503 263.199 269.285 260.218 262.864C257.237 256.443 255.746 248.588 255.746 239.3C255.746 230.012 257.237 222.157 260.218 215.736C263.199 209.315 267.27 204.097 272.43 200.084C277.705 196.071 283.897 193.147 291.006 191.312C298.115 189.477 305.855 188.56 314.226 188.56H332.974C337.217 188.56 341.459 188.732 345.702 189.076C349.945 189.305 354.073 189.879 358.086 190.796C362.099 191.713 365.998 193.032 369.782 194.752C373.681 196.357 377.293 198.593 380.618 201.46L369.438 209.372ZM395.238 203.868C391.225 198.593 386.867 194.351 382.166 191.14C377.465 187.929 372.477 185.407 367.202 183.572C362.042 181.737 356.595 180.533 350.862 179.96C345.129 179.272 339.166 178.928 332.974 178.928H314.226C304.25 178.928 295.134 180.075 286.878 182.368C278.622 184.547 271.455 188.044 265.378 192.86C259.415 197.676 254.771 203.925 251.446 211.608C248.121 219.176 246.458 228.407 246.458 239.3C246.458 250.193 248.121 259.481 251.446 267.164C254.771 274.732 259.415 280.924 265.378 285.74C271.455 290.556 278.622 294.111 286.878 296.404C295.134 298.583 304.25 299.672 314.226 299.672H332.974C342.835 299.672 352.066 298.64 360.666 296.576C369.381 294.397 376.949 290.957 383.37 286.256C389.791 281.44 394.837 275.191 398.506 267.508C402.29 259.825 404.182 250.423 404.182 239.3V224.68H325.578V253.92H370.298C368.463 257.016 366.113 259.596 363.246 261.66C360.379 263.724 357.226 265.387 353.786 266.648C350.461 267.795 346.963 268.655 343.294 269.228C339.739 269.687 336.299 269.916 332.974 269.916H314.226C309.066 269.916 304.193 269.4 299.606 268.368C295.019 267.336 291.006 265.673 287.566 263.38C284.126 260.972 281.374 257.819 279.31 253.92C277.246 250.021 276.214 245.148 276.214 239.3C276.214 233.567 277.246 228.751 279.31 224.852C281.374 220.953 284.126 217.8 287.566 215.392C291.121 212.984 295.191 211.264 299.778 210.232C304.365 209.2 309.181 208.684 314.226 208.684H332.974C339.739 208.684 346.218 209.773 352.41 211.952C358.602 214.016 364.106 217.571 368.922 222.616L395.238 203.868ZM273.978 302.252C267.557 296.748 262.282 291.531 258.154 286.6C254.026 281.669 250.758 276.739 248.35 271.808C246.057 266.763 244.451 261.66 243.534 256.5C242.617 251.225 242.158 245.492 242.158 239.3C242.158 227.604 243.935 217.685 247.49 209.544C251.045 201.288 255.975 194.58 262.282 189.42C268.703 184.26 276.329 180.533 285.158 178.24C293.987 175.832 303.677 174.628 314.226 174.628H332.974C339.281 174.628 345.358 174.915 351.206 175.488C357.054 176.061 362.73 177.265 368.234 179.1C373.738 180.82 379.013 183.457 384.058 187.012C389.218 190.452 394.206 195.096 399.022 200.944C402.462 204.384 405.271 207.251 407.45 209.544C409.629 211.837 411.349 213.787 412.61 215.392C413.986 216.997 415.018 218.316 415.706 219.348C416.509 220.265 417.197 221.125 417.77 221.928L412.61 225.54L425.166 238.096V256.5C425.166 268.311 423.217 278.287 419.318 286.428C415.419 294.569 410.087 301.163 403.322 306.208C396.557 311.368 388.587 315.037 379.414 317.216C370.355 319.509 360.609 320.656 350.174 320.656H331.426C319.73 320.656 308.837 319.165 298.746 316.184C288.655 313.317 280.399 308.673 273.978 302.252ZM321.278 230.7C317.838 231.273 314.627 232.191 311.646 233.452C308.779 234.599 306.257 236.204 304.078 238.268C301.899 240.332 300.179 242.912 298.918 246.008C297.771 248.989 297.198 252.487 297.198 256.5C297.198 259.252 297.427 261.545 297.886 263.38C300.294 264.183 302.874 264.756 305.626 265.1C308.378 265.444 311.245 265.616 314.226 265.616H329.706L321.278 258.22V230.7Z" fill="#D9D9D9"/>
</svg>
