<svg width="440" height="440" viewBox="0 0 440 440" fill="none" xmlns="http://www.w3.org/2000/svg">
<g clip-path="url(#clip0_131_82)">
<circle cx="215.5" cy="225.5" r="215.5" fill="white"/>
<path d="M156.244 280.988H289.038C293.836 280.988 297.97 284.369 298.922 289.072L337.181 478.063C338.446 484.31 333.671 490.148 327.297 490.148H117.984C111.611 490.148 106.836 484.31 108.1 478.063L146.36 289.072C147.312 284.369 151.446 280.988 156.244 280.988Z" fill="#D0AB74" stroke="#383434" stroke-width="5.97601"/>
<path d="M176.729 279.668C179.518 282.783 203.522 286.012 222.549 286.012C241.577 286.012 265.581 282.783 268.371 279.668" stroke="#383434" stroke-width="5"/>
<path d="M161.685 283.975C161.685 288.419 185.089 303.297 223.736 303.297C262.383 303.297 283.657 287.62 283.657 283.975" stroke="#86765E" stroke-width="5"/>
<path d="M330 307.928C319.75 293.361 313.193 290 299 290L305.723 323.242L315.977 374.78L332.615 454.714C340.981 442.762 355.025 439.027 366.977 447.617C366.977 447.617 357.266 364.327 355.025 355.736C352.784 347.146 338.937 320.627 330 307.928Z" fill="#D0AB74" stroke="#383434" stroke-width="5.97601" stroke-linecap="round" stroke-linejoin="round"/>
<path d="M114.977 307.928C125.227 293.361 131.784 290 145.977 290L139.254 323.242L129 374.78L112.362 454.714C103.996 442.762 89.952 439.027 78 447.617C78 447.617 87.711 364.327 89.952 355.736C92.193 347.146 106.04 320.627 114.977 307.928Z" fill="#D0AB74" stroke="#383434" stroke-width="5.97601" stroke-linecap="round" stroke-linejoin="round"/>
<path d="M175.487 328.107L153.36 363.98L175.487 398.1L196.877 363.98L175.487 328.107Z" fill="#67430E"/>
<path d="M226.856 328.107L204.729 363.98L226.856 398.1L248.246 363.98L226.856 328.107Z" fill="#86765E"/>
<path d="M277.803 328.107L255.677 363.98L277.803 398.1L299.193 363.98L277.803 328.107Z" fill="#67430E"/>
<path d="M142.978 391.538L197.684 337.833L257.862 391.538L299.569 337.833" stroke="#383434" stroke-width="2" stroke-dasharray="2 2"/>
<path d="M147.335 337.833L198.502 391.538L254.519 336.109L306.349 389.437" stroke="#383434" stroke-width="2" stroke-dasharray="2 2"/>
<rect x="192.729" y="104.371" width="57.5429" height="50.733" rx="7.16429" fill="#FFDD65" stroke="#383434" stroke-width="6.74286"/>
<path d="M183.036 226.787H259.964C263.921 226.787 267.129 229.995 267.129 233.952V272.718C267.129 276.005 264.903 278.831 261.789 279.553C232.558 286.329 212.713 286.342 181.326 279.463C178.152 278.767 175.871 275.912 175.871 272.585V233.952C175.871 229.995 179.079 226.787 183.036 226.787Z" fill="#FFDD65" stroke="#383434" stroke-width="6.74286"/>
<path d="M172.5 126.764H270.5C284.93 126.764 296.629 138.463 296.629 152.893V232.258C296.629 244.722 287.864 255.447 275.728 257.429C236.18 263.889 206.94 263.759 167.393 257.372C155.2 255.403 146.371 244.651 146.371 232.144V152.893C146.371 138.463 158.07 126.764 172.5 126.764Z" fill="#FFDD65" stroke="#383434" stroke-width="6.74286"/>
<path d="M172.5 126.764H270.5C284.93 126.764 296.629 138.463 296.629 152.893V232.258C296.629 244.722 287.864 255.447 275.728 257.429C236.18 263.889 206.94 263.759 167.393 257.372C155.2 255.403 146.371 244.651 146.371 232.144V152.893C146.371 138.463 158.07 126.764 172.5 126.764Z" stroke="#383434" stroke-width="6.74286"/>
<ellipse cx="199.097" cy="173.096" rx="9.02248" ry="10" fill="#383434"/>
<ellipse cx="200.006" cy="168.915" rx="2.54545" ry="2.54545" fill="white"/>
<ellipse cx="246.187" cy="173" rx="9" ry="10" fill="#383434"/>
<ellipse cx="247.005" cy="168.818" rx="2.29091" ry="2.54545" fill="white"/>
<path fill-rule="evenodd" clip-rule="evenodd" d="M200.813 262.788C208.858 263.743 240.594 264.804 249.096 262.788C257.598 260.773 286.451 246.84 286.451 246.84C285.232 235.347 289.023 198.802 290.95 180.225C291.574 174.212 292.003 170.081 292.003 169.293C292.003 166.714 289.495 163.801 288.242 162.667L279.606 239.061L258.8 246.84V226.287C250.428 224.066 231.163 223.377 231.163 223.377C226.201 226.225 223.522 226.895 217.291 223.377L189.867 226.287V246.84L162.519 240.929L153.159 162.667C151.782 163.585 149.027 166.197 149.027 169.293C149.027 170.196 149.548 175.62 150.286 183.304C152.077 201.955 155.146 233.92 155.146 246.84C155.146 246.84 192.767 261.834 200.813 262.788ZM198.706 234.729V248.405L216.31 253.345L226.064 250.723L236.352 253.345L251.322 248.405V232.956C247.636 231.113 241.729 232.623 235.789 234.142C231.771 235.169 227.737 236.2 224.365 236.2C220.577 236.2 216.78 235.389 213.198 234.624C207.533 233.413 202.405 232.318 198.706 234.729Z" fill="#6A4C1E"/>
<path d="M286.451 246.84L287.303 248.605C288.048 248.245 288.487 247.456 288.4 246.633L286.451 246.84ZM290.95 180.225L289.001 180.023L289.001 180.023L290.95 180.225ZM288.242 162.667L289.557 161.213C289.012 160.72 288.236 160.573 287.549 160.833C286.861 161.093 286.377 161.716 286.294 162.446L288.242 162.667ZM279.606 239.061L280.292 240.897C280.983 240.639 281.471 240.015 281.554 239.282L279.606 239.061ZM258.8 246.84H256.84C256.84 247.482 257.155 248.084 257.683 248.45C258.211 248.817 258.885 248.901 259.487 248.676L258.8 246.84ZM258.8 226.287H260.76C260.76 225.398 260.162 224.62 259.303 224.392L258.8 226.287ZM231.163 223.377L231.233 221.419C230.867 221.406 230.505 221.495 230.187 221.678L231.163 223.377ZM217.291 223.377L218.254 221.671C217.899 221.47 217.49 221.385 217.084 221.428L217.291 223.377ZM189.867 226.287L189.66 224.338C188.663 224.444 187.907 225.285 187.907 226.287H189.867ZM189.867 246.84L189.453 248.756C190.032 248.881 190.636 248.737 191.098 248.365C191.559 247.993 191.827 247.432 191.827 246.84H189.867ZM162.519 240.929L160.573 241.162C160.672 241.993 161.287 242.669 162.105 242.845L162.519 240.929ZM153.159 162.667L155.105 162.434C155.025 161.757 154.598 161.171 153.979 160.886C153.361 160.601 152.638 160.658 152.072 161.036L153.159 162.667ZM150.286 183.304L152.237 183.116L150.286 183.304ZM155.146 246.84H153.186C153.186 247.642 153.675 248.364 154.42 248.661L155.146 246.84ZM198.706 248.405H196.746C196.746 249.284 197.331 250.055 198.177 250.293L198.706 248.405ZM198.706 234.729L197.636 233.088C197.081 233.449 196.746 234.067 196.746 234.729H198.706ZM216.31 253.345L215.781 255.232C216.12 255.327 216.479 255.329 216.819 255.238L216.31 253.345ZM226.064 250.723L226.548 248.824C226.222 248.74 225.88 248.743 225.555 248.83L226.064 250.723ZM236.352 253.345L235.867 255.244C236.23 255.336 236.611 255.323 236.966 255.206L236.352 253.345ZM251.322 248.405L251.936 250.267C252.739 250.002 253.282 249.251 253.282 248.405H251.322ZM251.322 232.956H253.282C253.282 232.214 252.862 231.535 252.198 231.203L251.322 232.956ZM235.789 234.142L235.304 232.243L235.304 232.243L235.789 234.142ZM213.198 234.624L213.608 232.707L213.608 232.707L213.198 234.624ZM248.644 260.881C246.724 261.336 243.319 261.645 239.019 261.814C234.769 261.982 229.79 262.008 224.809 261.942C214.82 261.81 204.96 261.307 201.043 260.842L200.582 264.735C204.711 265.225 214.742 265.729 224.757 265.862C229.778 265.928 234.831 265.902 239.173 265.731C243.466 265.562 247.217 265.248 249.548 264.695L248.644 260.881ZM286.451 246.84C285.599 245.075 285.598 245.075 285.598 245.075C285.598 245.075 285.598 245.075 285.597 245.075C285.597 245.076 285.595 245.076 285.594 245.077C285.59 245.079 285.585 245.081 285.578 245.085C285.565 245.091 285.544 245.101 285.517 245.114C285.463 245.14 285.382 245.179 285.276 245.23C285.064 245.332 284.751 245.482 284.349 245.674C283.547 246.058 282.389 246.608 280.974 247.275C278.143 248.61 274.281 250.41 270.155 252.272C261.81 256.038 252.669 259.927 248.644 260.881L249.548 264.695C254.025 263.634 263.561 259.549 271.768 255.845C275.919 253.971 279.801 252.162 282.645 250.821C284.068 250.151 285.231 249.597 286.04 249.211C286.444 249.018 286.759 248.867 286.974 248.764C287.081 248.712 287.163 248.672 287.218 248.646C287.246 248.632 287.267 248.622 287.281 248.615C287.289 248.612 287.294 248.609 287.298 248.608C287.299 248.607 287.301 248.606 287.302 248.606C287.302 248.605 287.303 248.605 287.303 248.605C287.303 248.605 287.303 248.605 286.451 246.84ZM289.001 180.023C288.038 189.308 286.606 203.111 285.567 216.032C284.536 228.871 283.869 241.081 284.502 247.047L288.4 246.633C287.814 241.106 288.434 229.297 289.475 216.346C290.509 203.477 291.936 189.719 292.9 180.427L289.001 180.023ZM290.043 169.293C290.043 169.564 289.951 170.664 289.76 172.608C289.575 174.484 289.313 177.014 289.001 180.023L292.9 180.427C293.212 177.423 293.475 174.881 293.661 172.991C293.84 171.169 293.963 169.81 293.963 169.293H290.043ZM286.927 164.12C287.446 164.589 288.273 165.477 288.954 166.514C289.665 167.596 290.043 168.576 290.043 169.293H293.963C293.963 167.43 293.087 165.664 292.23 164.361C291.345 163.014 290.292 161.878 289.557 161.213L286.927 164.12ZM281.554 239.282L290.189 162.887L286.294 162.446L277.658 238.841L281.554 239.282ZM259.487 248.676L280.292 240.897L278.92 237.225L258.114 245.004L259.487 248.676ZM256.84 226.287V246.84H260.76V226.287H256.84ZM231.163 223.377C231.093 225.336 231.093 225.336 231.093 225.336C231.093 225.336 231.093 225.336 231.093 225.336C231.094 225.336 231.094 225.336 231.096 225.336C231.098 225.336 231.101 225.337 231.105 225.337C231.114 225.337 231.127 225.338 231.145 225.338C231.181 225.34 231.234 225.342 231.305 225.344C231.446 225.35 231.654 225.358 231.923 225.37C232.462 225.393 233.241 225.428 234.203 225.477C236.129 225.576 238.781 225.73 241.692 225.954C247.572 226.405 254.309 227.123 258.298 228.181L259.303 224.392C254.919 223.229 247.838 222.493 241.992 222.045C239.04 221.819 236.353 221.662 234.404 221.562C233.429 221.512 232.638 221.477 232.09 221.453C231.816 221.441 231.603 221.433 231.458 221.427C231.385 221.424 231.329 221.422 231.291 221.421C231.272 221.42 231.258 221.42 231.248 221.419C231.243 221.419 231.24 221.419 231.237 221.419C231.236 221.419 231.235 221.419 231.234 221.419C231.234 221.419 231.233 221.419 231.233 221.419C231.233 221.419 231.233 221.419 231.163 223.377ZM216.327 225.084C219.562 226.91 222.174 227.829 224.782 227.723C227.366 227.618 229.637 226.513 232.139 225.077L230.187 221.678C227.728 223.089 226.178 223.743 224.624 223.806C223.094 223.868 221.251 223.362 218.254 221.671L216.327 225.084ZM190.073 228.236L217.498 225.327L217.084 221.428L189.66 224.338L190.073 228.236ZM191.827 246.84V226.287H187.907V246.84H191.827ZM162.105 242.845L189.453 248.756L190.281 244.924L162.933 239.014L162.105 242.845ZM151.213 162.899L160.573 241.162L164.465 240.697L155.105 162.434L151.213 162.899ZM150.987 169.293C150.987 168.323 151.427 167.302 152.148 166.335C152.863 165.375 153.727 164.644 154.247 164.297L152.072 161.036C151.214 161.608 150.012 162.642 149.005 163.992C148.005 165.334 147.067 167.167 147.067 169.293H150.987ZM152.237 183.116C151.868 179.273 151.554 176.001 151.332 173.577C151.104 171.085 150.987 169.629 150.987 169.293H147.067C147.067 169.86 147.211 171.567 147.428 173.934C147.651 176.369 147.966 179.651 148.335 183.491L152.237 183.116ZM157.106 246.84C157.106 233.799 154.022 201.706 152.237 183.116L148.335 183.491C150.132 202.205 153.186 234.041 153.186 246.84H157.106ZM201.043 260.842C199.265 260.631 195.599 259.587 190.898 258.033C186.272 256.504 180.841 254.549 175.644 252.619C170.451 250.689 165.507 248.789 161.86 247.371C160.037 246.662 158.539 246.074 157.497 245.663C156.976 245.457 156.569 245.296 156.293 245.187C156.155 245.132 156.049 245.09 155.978 245.062C155.943 245.047 155.916 245.037 155.898 245.03C155.889 245.026 155.882 245.023 155.878 245.022C155.876 245.021 155.874 245.02 155.873 245.02C155.872 245.02 155.872 245.019 155.872 245.019C155.871 245.019 155.871 245.019 155.146 246.84C154.42 248.661 154.42 248.661 154.421 248.661C154.421 248.661 154.421 248.661 154.422 248.661C154.423 248.662 154.425 248.663 154.427 248.664C154.432 248.665 154.439 248.668 154.448 248.672C154.466 248.679 154.494 248.69 154.53 248.704C154.602 248.733 154.708 248.775 154.848 248.83C155.126 248.941 155.535 249.103 156.059 249.309C157.106 249.722 158.61 250.313 160.439 251.024C164.098 252.447 169.062 254.355 174.279 256.293C179.494 258.231 184.976 260.204 189.667 261.755C194.283 263.28 198.337 264.468 200.582 264.735L201.043 260.842ZM200.666 248.405V234.729H196.746V248.405H200.666ZM216.84 251.458L199.236 246.518L198.177 250.293L215.781 255.232L216.84 251.458ZM225.555 248.83L215.802 251.452L216.819 255.238L226.573 252.616L225.555 248.83ZM236.836 251.446L226.548 248.824L225.58 252.622L235.867 255.244L236.836 251.446ZM250.708 246.544L235.737 251.484L236.966 255.206L251.936 250.267L250.708 246.544ZM249.362 232.956V248.405H253.282V232.956H249.362ZM236.275 236.041C239.276 235.273 242.111 234.552 244.645 234.233C247.216 233.91 249.134 234.054 250.445 234.709L252.198 231.203C249.824 230.016 246.945 229.993 244.156 230.344C241.331 230.699 238.243 231.491 235.304 232.243L236.275 236.041ZM224.365 238.16C228.036 238.16 232.335 237.048 236.275 236.041L235.304 232.243C231.208 233.29 227.438 234.24 224.365 234.24V238.16ZM212.788 236.541C216.335 237.298 220.335 238.16 224.365 238.16V234.24C220.819 234.24 217.225 233.48 213.608 232.707L212.788 236.541ZM199.777 236.371C201.142 235.481 202.876 235.163 205.116 235.276C207.38 235.39 209.915 235.926 212.788 236.541L213.608 232.707C210.816 232.111 207.954 231.494 205.313 231.361C202.649 231.226 199.969 231.566 197.636 233.088L199.777 236.371Z" fill="#3B2607"/>
<path d="M211.268 243.259C217.29 244.086 231.343 244.748 239.374 240.778" stroke="#3B2607" stroke-width="6" stroke-linecap="round" stroke-linejoin="round"/>
<path d="M195.853 131.505C207.654 138.085 229.759 142.237 248.043 123.966C248.043 123.966 268.652 124.672 271.28 136.195C271.28 148.727 282.161 153.145 287.002 164.148C291.843 175.151 281.116 176.342 287.002 192.004C291.156 203.057 281.116 215.891 281.116 215.891C281.116 215.891 260.922 237.633 262.441 255.793C263.961 273.953 282.108 276.772 271.28 297.379C260.452 317.985 278.471 328.324 257.51 352.633C260.698 362.22 278.151 355.998 287.002 352.633C302.378 346.787 321.134 320.804 316.594 297.379C312.055 273.953 335.483 262.207 324.766 231.262C317.519 210.339 327.21 196.305 316.594 180.232C309.476 169.454 311.02 148.979 302.294 123.966C295.314 103.956 271.28 72.7561 250.888 81.9712C243.563 67.4755 216.654 67.4759 206.688 67.4761L206.592 67.4761C196.703 67.4761 167.493 67.4761 160.512 87.38C156.364 99.2076 151.28 91.3447 140.228 106.469C129.175 121.593 131.02 133.597 128.693 150.466C127.264 160.826 108.381 181.199 108.381 196.305C108.381 211.41 114.872 215.883 113.271 231.262C112.052 242.965 108.382 249.414 108.382 263.532C108.382 277.649 117.184 288.479 123.661 297.379C129.948 306.018 129.75 313.59 133.754 324.268C144.225 352.19 187.709 369.135 195.853 366.226C203.997 363.318 171.598 340.012 171.598 315.109C171.598 306.52 182.334 292.095 182.334 274.644C182.334 256.484 166.122 238.705 160.512 231.262C148.65 215.524 156.261 209.203 160.512 196.305C164.763 183.406 149.929 173.584 156.261 164.148C160.775 157.42 164.353 154.901 164.353 143.203C164.353 131.505 182.334 123.966 195.853 131.505Z" fill="#6A4C1E"/>
<path d="M248.043 123.966C229.759 142.237 207.654 138.085 195.853 131.505C182.334 123.966 164.353 131.505 164.353 143.203C164.353 154.901 160.775 157.42 156.261 164.148C149.929 173.584 164.763 183.406 160.512 196.305C156.261 209.203 148.65 215.524 160.512 231.262C166.122 238.705 182.334 256.484 182.334 274.644C182.334 292.095 171.598 306.52 171.598 315.109C171.598 340.012 203.997 363.318 195.853 366.226C187.709 369.135 144.225 352.19 133.754 324.268C129.75 313.59 129.948 306.018 123.661 297.379C117.184 288.479 108.382 277.649 108.382 263.532C108.382 249.414 112.052 242.965 113.271 231.262C114.872 215.883 108.381 211.41 108.381 196.305C108.381 181.199 127.264 160.826 128.693 150.466C131.02 133.597 129.175 121.593 140.228 106.469C151.28 91.3447 156.364 99.2076 160.512 87.38C167.493 67.4761 196.703 67.4761 206.592 67.4761C216.481 67.4761 243.539 67.4287 250.888 81.9712M248.043 123.966C248.043 123.966 268.652 124.672 271.28 136.195C271.28 148.727 282.161 153.145 287.002 164.148C291.843 175.151 281.116 176.342 287.002 192.004C291.156 203.057 281.116 215.891 281.116 215.891C281.116 215.891 260.922 237.633 262.441 255.793C263.961 273.953 282.108 276.772 271.28 297.379C260.452 317.985 278.471 328.324 257.51 352.633C260.698 362.22 278.151 355.998 287.002 352.633C302.378 346.787 321.134 320.804 316.594 297.379C312.055 273.953 335.483 262.207 324.766 231.262C317.519 210.339 327.21 196.305 316.594 180.232C309.476 169.454 311.02 148.979 302.294 123.966C295.314 103.956 271.28 72.7561 250.888 81.9712M248.043 123.966C249.925 122.086 257.925 112.083 244.31 107.83C241.3 106.413 233.778 104.473 224.684 106.469M250.888 81.9712C254.325 85.0434 257.916 91.0563 257.51 94.7138M135.693 284.15C137.197 298.332 154.356 310.901 156.929 328.053M158.261 259.532C161.095 262.294 165.913 269.606 162.512 276.755M218.727 87.38C208.276 85.4525 186.366 84.2207 182.334 94.7138M295.059 289.867C306.615 317.052 285.21 331.973 281.116 340.454M271.28 113.24C276.521 116.097 287.002 124.686 287.002 136.195M135.693 176.678C131.333 184.077 126.846 191.854 128.693 202.214C130.839 214.251 138.815 225.033 133.754 231.262M295.059 223.522C288.45 228.983 276.408 242.268 281.116 251.719M310.816 242.311C315.087 250.246 313.719 259.532 306.331 263.532" stroke="#766449" stroke-width="7" stroke-linecap="round" stroke-linejoin="round"/>
<path d="M266.157 164.589C256.069 157.613 234.938 157.749 229.65 161.068C229.363 161.249 228.939 161.105 228.857 160.775C228.451 159.151 227.769 156.417 229.226 155.62C237.648 151.011 257.193 152.739 266.798 159.591C267.306 159.953 267.002 163.127 266.703 164.406C266.644 164.66 266.372 164.737 266.157 164.589Z" fill="#383434"/>
<path d="M174.324 164.007C184.901 157.753 205.903 157.268 210.935 160.78C211.214 160.975 211.642 160.861 211.734 160.533C212.192 158.888 212.86 156.016 211.464 155.11C203.411 149.882 183.843 152.604 173.75 158.714C173.214 159.039 173.511 162.447 173.78 163.788C173.832 164.044 174.099 164.14 174.324 164.007Z" fill="#383434"/>
</g>
<defs>
<clipPath id="clip0_131_82">
<rect width="440" height="440" rx="220" fill="white"/>
</clipPath>
</defs>
</svg>
